<?xml version="1.0" encoding="UTF-8"?>
<!DOCTYPE svg PUBLIC "-//W3C//DTD SVG 1.1//EN" "http://www.w3.org/Graphics/SVG/1.1/DTD/svg11.dtd">
<!-- Creator: CorelDRAW -->
<svg xmlns="http://www.w3.org/2000/svg" xml:space="preserve" width="1.70666in" height="1.70666in" version="1.1" style="shape-rendering:geometricPrecision; text-rendering:geometricPrecision; image-rendering:optimizeQuality; fill-rule:evenodd; clip-rule:evenodd"
viewBox="0 0 1706.66 1706.66"
 xmlns:xlink="http://www.w3.org/1999/xlink"
 xmlns:xodm="http://www.corel.com/coreldraw/odm/2003">
 <defs>
  <style type="text/css">
   <![CDATA[
    .fil0 {fill:black}
    .fil3 {fill:#62D8B6}
    .fil1 {fill:#FF9E35}
    .fil2 {fill:#FFB03B}
   ]]>
  </style>
 </defs>
 <g id="Layer_x0020_1">
  <metadata id="CorelCorpID_0Corel-Layer"/>
  <path class="fil0" d="M1268.61 1193.61l-883.33 0c-94.44,0 -171.25,-76.8 -171.25,-171.25l-0 -505.84c0,-94.44 76.8,-171.25 171.25,-171.25l1037.5 0c94.44,0 171.25,76.81 171.25,171.25l0 322.64c0,15.48 -16.98,25.15 -30.28,17.08 -136.39,-82.79 -319.44,14.79 -319.44,181.25 0,100.8 55.42,118.76 42.09,145.14 -3.34,6.81 -10.15,10.98 -17.78,10.98zm-883.19 -808.33c-72.36,0 -131.25,58.89 -131.25,131.25l0 505.83c0,72.36 58.89,131.25 131.25,131.25l847.36 -0.01c-108.07,-207.22 104.55,-439.45 321.39,-347.08l0 -290c0,-72.36 -58.89,-131.25 -131.25,-131.25l-1037.5 0z"/>
  <path class="fil0" d="M904.17 876.38c-4.17,0 -8.19,-1.25 -11.66,-3.75l-622.5 -449.86c-21.2,-15.45 2.23,-47.83 23.47,-32.36l610.69 441.24 610.69 -441.24c21.1,-15.37 44.74,16.87 23.47,32.36l-622.49 449.86c-3.47,2.5 -7.5,3.75 -11.67,3.75z"/>
  <path class="fil0" d="M278.61 1149.16c-19.35,0 -27.37,-24.99 -11.53,-36.24l504.72 -360.14c21.42,-15.22 44.58,17.44 23.19,32.63l-504.72 360.14c-3.61,2.36 -7.64,3.61 -11.67,3.61z"/>
  <path class="fil0" d="M1250.7 950.13c-4.03,0 -8.06,-1.25 -11.67,-3.75l-225.7 -161.11c-21.53,-15.3 1.98,-47.81 23.33,-32.64l225.69 161.11c16.02,11.39 7.38,36.39 -11.66,36.39z"/>
  <path class="fil0" d="M234.17 574.58l-214.17 0c-26.37,0 -26.37,-40 0,-40l214.17 0c26.37,0 26.37,40 0,40z"/>
  <path class="fil0" d="M234.17 695.13l-184.03 0c-26.36,0 -26.37,-40 0,-40l184.03 0c26.37,0 26.37,40 0,40z"/>
  <path class="fil0" d="M234.31 815.83l-159.72 0c-26.37,0 -26.37,-40 0,-40l159.72 0.01c26.36,0 26.37,40 0,40z"/>
  <path class="fil0" d="M1455.55 1288.74c-138.47,0 -251.11,-112.64 -251.11,-251.11 0,-138.47 112.64,-251.11 251.11,-251.11 138.48,0 251.11,112.64 251.11,251.11 0,138.33 -112.63,251.11 -251.11,251.11zm0 -462.36c-116.39,0 -211.11,94.72 -211.11,211.11 0,116.39 94.72,211.11 211.11,211.11 116.39,0 211.11,-94.72 211.11,-211.11 0,-116.39 -94.72,-211.11 -211.11,-211.11z"/>
  <path class="fil0" d="M1465.56 1145.13c-17.85,0 -26.66,-21.57 -14.17,-34.17l55.41 -55.41 -172.77 0c-26.29,0 -26.3,-40 0,-40l221.11 0.01c17.86,0 26.61,21.71 14.17,34.16l-89.58 89.58c-3.89,3.89 -9.03,5.83 -14.17,5.83z"/>
  <path class="fil0" d="M1555.14 1055.55l-221.11 0c-26.29,0 -26.3,-40 0,-40l172.78 0.01 -55.41 -55.42c-18.48,-18.48 9.43,-47.07 28.33,-28.33l89.59 89.59c12.61,12.61 3.53,34.16 -14.17,34.16z"/>
  <path class="fil0" d="M1044.03 1290.97l-279.72 0c-26.33,0 -26.33,-40 0,-40l279.72 0c26.24,0 26.4,40 0,40z"/>
  <path class="fil0" d="M1142.91 1361.38l-477.5 0c-26.33,0 -26.33,-40 0,-40l477.37 0c26.26,0 26.31,40 0.13,40z"/>
  <path class="fil1" d="M1337.48 816.05c62.02,-34.07 139.07,-42.58 216.68,-9.53l0 -290c0,-31.68 -11.29,-60.78 -30.05,-83.48l-464.7 335.83 185.39 132.35c23.14,-35.63 55.06,-65.05 92.68,-85.17z"/>
  <path class="fil2" d="M904.16 831.66l589.28 -425.78c-20.39,-13.04 -44.59,-20.61 -70.53,-20.61l-1037.5 0c-25.94,0 -50.15,7.57 -70.53,20.61l589.28 425.77z"/>
  <path class="fil1" d="M749.09 768.99l-464.87 -335.94c-18.76,22.7 -30.05,51.8 -30.05,83.48l0 505.83c0,30.17 10.24,58.01 27.43,80.2l467.49 -333.57z"/>
  <path class="fil1" d="M783.33 793.74l-472.08 336.85c21.11,14.52 46.67,23.02 74.17,23.02l847.36 -0.01c-35.43,-67.93 -36.39,-138.56 -14.04,-199.54 2.07,-5.86 4.36,-11.62 6.85,-17.28l-200.49 -143.11 -109.26 78.96c-3.47,2.5 -7.5,3.75 -11.67,3.75 -4.17,0 -8.19,-1.25 -11.66,-3.75l-109.17 -78.89z"/>
  <path class="fil3" d="M1317.78 877.68c-44.88,38.74 -73.33,96.03 -73.33,159.82 0,33.21 7.71,64.67 21.44,92.65 7.09,13.08 14.26,22.65 18.56,30.85 38.39,53.04 100.8,87.61 171.11,87.61 116.39,0 211.11,-94.72 211.11,-211.11 0,-76.88 -41.33,-144.31 -102.93,-181.23 -31.66,-18.97 -68.67,-29.89 -108.18,-29.89 -6.87,0 -13.67,0.33 -20.38,0.98 -43.19,4.51 -84.4,22.29 -117.4,50.32zm16.25 137.87l172.78 0.01 -55.41 -55.42c-18.48,-18.48 9.43,-47.07 28.33,-28.33l89.59 89.59c4.69,4.69 6.38,10.61 5.74,16.2 -0.39,4.31 -2.22,8.59 -5.75,12.12l-89.58 89.58c-3.89,3.89 -9.03,5.83 -14.17,5.83 -17.85,0 -26.66,-21.57 -14.17,-34.17l55.41 -55.41 -172.77 0c-26.29,0 -26.3,-40 0,-40z"/>
 </g>
</svg>
