<?xml version="1.0" encoding="UTF-8"?>
<svg xmlns="http://www.w3.org/2000/svg" xmlns:xlink="http://www.w3.org/1999/xlink" width="50px" height="50px" viewBox="0 0 50 50" version="1.1">
<g id="surface1">
<path style=" stroke:none;fill-rule:nonzero;fill:rgb(100%,100%,100%);fill-opacity:1;" d="M 47.105469 41.554688 L 37.71875 31.402344 L 36.21875 32.90625 L 34.519531 31.207031 C 34.648438 31.039062 34.777344 30.867188 34.902344 30.695312 C 40.421875 22.988281 39.125 12.339844 31.921875 6.175781 C 24.71875 0.0117188 13.996094 0.382812 7.238281 7.027344 C 0.476562 13.675781 -0.0820312 24.386719 5.957031 31.695312 C 11.992188 39.007812 22.617188 40.484375 30.421875 35.101562 C 30.679688 34.921875 30.933594 34.734375 31.183594 34.542969 L 32.882812 36.238281 L 31.199219 37.925781 L 41.554688 47.113281 C 42.546875 48.105469 43.992188 48.496094 45.351562 48.132812 C 46.707031 47.765625 47.765625 46.707031 48.128906 45.347656 C 48.492188 43.992188 48.101562 42.542969 47.105469 41.554688 Z M 28.992188 28.996094 C 24.714844 33.28125 18.007812 33.949219 12.972656 30.589844 C 7.933594 27.230469 5.972656 20.78125 8.289062 15.183594 C 10.601562 9.589844 16.546875 6.410156 22.484375 7.589844 C 28.421875 8.769531 32.699219 13.980469 32.699219 20.035156 C 32.699219 23.394531 31.367188 26.617188 28.992188 28.996094 Z M 28.992188 28.996094 "/>
</g>
</svg>
