<svg xmlns="http://www.w3.org/2000/svg" width="15.496" height="15.496" viewBox="0 0 15.496 15.496">
  <path id="face-frown-emoji" d="M7.748,8A7.748,7.748,0,1,0,15.5,15.748,7.747,7.747,0,0,0,7.748,8Zm0,14A6.248,6.248,0,1,1,14,15.748,6.255,6.255,0,0,1,7.748,22Zm-2.5-6.748a1,1,0,1,0-1-1A1,1,0,0,0,5.249,15.248Zm5-2a1,1,0,1,0,1,1A1,1,0,0,0,10.247,13.249Zm-2.5,4a4.213,4.213,0,0,0-3.243,1.518.75.75,0,1,0,1.153.959,2.717,2.717,0,0,1,4.18,0,.75.75,0,1,0,1.153-.959A4.213,4.213,0,0,0,7.748,17.248Z" transform="translate(0 -8)" style="fill: rgb(253, 126, 20);"></path>
</svg>